<?xml version="1.0" encoding="UTF-8"?>
<svg width="148px" height="59px" viewBox="0 0 148 59" version="1.1" xmlns="http://www.w3.org/2000/svg" xmlns:xlink="http://www.w3.org/1999/xlink">
    <!-- Generator: sketchtool 49.1 (51147) - http://www.bohemiancoding.com/sketch -->
    <title>A456A21E-71C0-41D6-ACB6-FE94B31A56FF</title>
    <desc>Created with sketchtool.</desc>
    <defs>
        <polygon id="path-1" points="6.36772008e-05 0.148425061 147.677765 0.148425061 147.677765 58.2493657 6.36772008e-05 58.2493657"></polygon>
    </defs>
    <g id="Symbols" stroke="none" stroke-width="1" fill="none" fill-rule="evenodd">
        <g id="header_logo">
            <g id="logo">
                <g id="Group-3">
                    <mask id="mask-2" fill="white">
                        <use xlink:href="#path-1"></use>
                    </mask>
                    <g id="Clip-2"></g>
                    <path d="M132.58893,25.4307209 C134.138121,23.7173214 137.875645,22.1151535 138.843966,23.2631001 C139.811978,24.410737 138.587008,25.9050815 137.01333,27.8235932 C137.01333,27.8235932 133.669458,31.5726227 128.603746,34.3394685 C128.558181,30.1083324 131.124048,27.0505495 132.58893,25.4307209 M108.73021,21.482466 C107.578701,20.6338221 107.918109,17.9221273 109.074268,18.7004382 C109.645838,19.0855658 108.73021,21.482466 108.73021,21.482466 M97.4823022,33.4260686 C95.0267817,36.9064693 91.7449021,38.9715339 89.679624,38.3391563 C88.1093556,37.8579792 87.3471586,36.2338129 87.3521179,33.3743258 C87.835039,29.0685189 90.2880798,25.5856394 94.2639648,23.5633323 C95.6696433,22.8482282 96.9721044,22.7921477 97.9339171,23.4031465 C98.9223865,24.0308766 99.4586211,25.3337418 99.4056175,26.9758787 C99.3321565,29.2249866 98.6753466,31.4087189 97.4823022,33.4260686 M73.2516281,37.4254466 C72.0855503,38.5157635 70.4365515,38.8711467 68.8396263,38.3760269 C67.718803,38.0274601 66.9659049,37.409335 66.6636917,36.5882666 C66.3602387,35.7650293 66.5418766,34.7627061 67.1745094,33.7641009 C69.0813968,30.755892 70.6680932,28.1033761 71.9984509,25.6993497 C72.1645907,26.1194889 72.3369296,26.5458248 72.5101985,26.9758787 C73.2894434,28.9061642 74.0944152,30.9027548 74.5333217,32.7447367 C74.9585898,34.5281593 74.4793883,36.2781196 73.2516281,37.4254466 M15.247474,53.8839961 C13.935714,52.5730751 18.378402,50.0330301 22.075631,46.66572 C21.0140105,48.6554942 16.394954,55.0310132 15.247474,53.8839961 M24.2596246,11.4750358 C24.4242145,9.34459557 25.6265578,7.87689698 27.5328253,6.28526353 C28.5287338,7.10881068 28.80553,8.2273228 28.8532642,9.05985523 C28.9409835,10.5789868 28.297812,12.2198843 27.289195,13.0496282 C26.42812,13.7566766 25.7276055,13.9088067 25.0143825,13.54103 C24.3743106,13.2110534 24.1694256,12.6511777 24.2596246,11.4750358 M147.562893,30.7332739 C147.451616,30.4311827 146.418822,28.630719 144.066209,31.6404771 C141.713596,34.6502352 138.908439,36.3809855 137.202407,37.2841608 C135.94706,37.9487615 132.109418,38.9405502 130.016553,37.5803651 C133.522846,35.7262996 137.33879,32.7794385 141.197199,28.1755682 C144.771063,22.9826975 142.308724,18.5616312 135.677703,19.983164 C129.364083,21.3368426 126.229125,28.3174736 126.002543,28.8420279 C125.874529,29.1376126 124.4735,32.7571302 124.815078,36.0500794 C122.801563,36.7658033 120.624389,37.2293196 118.351746,37.2389246 C115.225158,37.2525574 114.997955,36.6809079 114.997955,36.6809079 C114.997955,36.6809079 120.649186,33.7219631 126.316535,22.4878876 C126.674541,21.7780507 126.280269,20.6517926 125.6154,20.2155419 C124.949911,19.7808404 123.512617,19.7458288 123.005829,20.4925363 C121.134277,23.2503968 112.196207,22.1167027 111.84347,22.0962534 C111.960016,21.1537288 112.362967,20.1637991 112.384354,19.2476106 C112.455646,16.1935458 110.37177,15.2655836 109.185235,15.220967 C106.02579,15.1026092 104.801439,18.1030722 105.107062,20.3642637 C105.303888,21.8223574 106.167133,23.4524106 107.871925,24.4885061 C107.00992,27.860154 105.441201,31.2553495 103.864114,33.7269205 C102.471144,35.9078642 100.602692,36.9340448 99.8110481,36.8364461 L99.6511076,36.5585222 C99.7264284,36.515145 99.7949301,36.4587546 99.8488635,36.3834642 C101.621537,33.9078654 102.698656,31.3997336 103.143142,28.7168537 C103.65179,25.6448183 102.872545,22.9560515 101.005022,21.3399409 C99.1697363,19.7504763 96.4553974,19.3668979 93.5588008,20.2849454 C89.2754333,21.6435813 86.0983209,24.6976462 84.3715215,29.1174731 C83.2652665,31.9472159 81.2948369,34.3416374 78.1685582,36.652093 C78.121754,36.6864849 78.0737098,36.7211867 78.0256657,36.7543393 C78.5454723,35.4282363 78.6682173,34.1232022 78.4031996,32.8063943 C78.0857983,31.2305625 77.6143459,29.6897424 77.0006207,28.2279307 C76.563884,27.186568 76.0524464,26.1675136 75.5574368,25.1822315 C75.1241096,24.3196448 74.6759043,23.4276237 74.2872117,22.5371517 C74.1870939,22.306323 74.2385477,21.8127524 74.416466,21.3080277 C74.6061628,20.7698406 74.8380145,20.2499338 75.0838146,19.6996631 C75.3444928,19.11562 75.6141599,18.5114376 75.8274138,17.884637 C76.2545417,16.6294867 75.9142033,15.609193 74.8928778,15.0861878 C73.8405562,14.5458319 72.7857549,14.7782097 71.9287094,15.7383951 C70.5844034,17.2420348 70.3162861,19.0750314 70.2313565,20.3236751 C70.2236074,20.4389345 70.2186481,20.5569825 70.2139986,20.6756501 C70.1975706,21.0586088 70.1826924,21.4204986 70.0683164,21.6773536 C67.4677336,27.5094183 65.021512,31.6553493 62.1332844,35.1214975 C61.0983206,36.3636346 59.7245682,37.5118911 58.2649563,38.3552678 C57.8688246,38.5842375 57.283926,38.8026727 56.75854,38.5461275 C56.2790285,38.31313 55.9402399,37.7244394 55.8342328,37.0025188 C55.7210966,32.7143726 57.4550251,29.3641035 60.3274447,23.8118217 L60.6721226,23.1441227 C60.9876641,22.5349828 61.2784087,21.8164705 61.045937,21.1060139 C60.8971552,20.653032 60.5636359,20.2948602 60.0531281,20.0411036 C58.9372643,19.4861853 58.0027283,19.9159294 57.2718374,21.3148441 C57.0266573,21.7820786 56.7793075,22.2486933 56.5310278,22.7159277 C55.5112522,24.6347492 54.4567608,26.6189463 53.6375308,28.6759552 C52.8461973,30.6610818 51.6475735,32.4014371 49.9740877,33.9967886 C48.2634064,35.6259124 45.7657311,37.0843158 43.6824752,37.76131 C46.8304512,34.2229697 48.4676714,30.1715391 48.438845,25.9410227 C48.4233469,23.6950131 47.4413866,21.6996619 45.8128453,20.6040777 C44.2940306,19.5819249 42.4271283,19.4294851 40.5555766,20.1746434 C37.9884698,21.1964863 36.2433827,22.3456723 35.0698658,23.2990413 C35.2084189,22.9541925 35.3407728,22.603147 35.4551488,22.2468343 C35.7341148,21.3789804 35.4790159,20.628245 34.7372764,20.1321957 C34.3482739,19.8731719 33.330978,19.4025292 32.2842357,20.6108941 C32.0340962,20.9005919 31.7783774,21.3232097 31.617817,21.7154636 C31.1863496,22.7695296 30.7617014,23.8260743 30.3370532,24.8826189 C29.8408037,26.11732 29.3439343,27.3517112 28.8377661,28.5826942 C28.7134713,28.8863346 28.5981653,29.19958 28.4837893,29.5131352 C28.1868455,30.3249085 27.9060198,31.090826 27.4488255,31.686333 C23.6998329,36.5727747 18.9000684,39.4505422 13.1831258,40.2390777 C10.1761826,40.655189 7.50027904,39.707707 5.82090391,37.6466703 C4.18368363,35.6364468 3.80366999,32.9108094 4.77726122,30.1687506 C6.46686511,25.4105814 12.1106566,22.0060908 17.3567667,22.5780502 C18.6855746,22.7233638 20.0193418,22.6806063 21.0332282,22.6263848 C21.4541568,22.6040765 21.8227019,22.3952463 22.0706716,22.0376942 C22.2684275,21.750785 22.3719549,21.3823886 22.3533571,21.0263857 C22.3046931,20.1080284 21.7923256,19.4393998 21.0161802,19.2810731 C20.313496,19.1376185 19.6089519,19.182235 18.9267251,19.2256122 C18.7488068,19.2367663 18.5705786,19.2482303 18.3939001,19.2556664 C15.7021885,19.3656586 14.2100305,18.328014 13.4115679,15.7681394 C12.5129875,12.8906818 13.1874653,10.2688398 15.4154735,7.97573503 C17.4950098,5.83507014 21.0713535,4.66791359 23.8935592,5.09362984 C23.6942535,5.2717862 23.5054866,5.4527311 23.3309779,5.64730883 C22.1999258,6.90617718 21.4619059,8.21028176 20.862129,10.0073372 C20.0642864,12.3992801 20.6513547,14.5706188 22.4730025,15.9636467 C24.3203772,17.3765041 26.486083,17.4548929 28.7345487,16.1938557 C30.978365,14.935607 32.2575789,12.823757 32.5374748,9.91562545 C32.74019,7.80005737 32.0963986,5.95714598 30.5177611,4.17527252 C31.8397499,3.6138476 32.9980786,3.35513357 34.2413369,3.10788353 C34.8067079,2.99541264 35.1820722,2.6056375 35.2443746,2.06497167 C35.3243448,1.37341515 34.8395639,0.538713857 34.1861636,0.242819377 C33.8132791,0.0724089426 33.412498,0.170937157 33.1198937,0.242199702 L32.9577835,0.279689998 C31.4439282,0.586428779 30.1963304,0.89533642 27.9295769,2.08387174 L27.7144631,2.19107539 C27.649681,2.22267878 27.5827292,2.25552152 27.5176371,2.28836426 C27.5167072,2.28836426 27.5154674,2.28805442 27.5148475,2.28774458 C27.395822,2.24002966 27.2755567,2.19262458 27.16614,2.15885233 C21.6147172,0.443903689 14.9691279,2.45753534 11.3651976,6.94862487 C9.49643553,9.27829042 8.68061505,12.2366156 9.12789049,15.0648091 C9.45149102,17.1143818 10.4219826,18.8897487 11.8967827,20.1628696 C7.85735548,21.221893 4.85878128,23.1462915 2.7510384,26.025918 C1.00719113,28.4094952 -0.298989526,30.514219 0.0596367249,34.0773463 C0.816564388,39.7644072 4.0683777,42.9507725 9.7245677,43.547209 C15.0286407,44.1030569 19.9734674,42.5941499 24.8243757,38.9278469 L24.7112395,39.2265299 C24.7112395,39.2265299 22.788854,42.4946922 16.992871,46.1092524 C12.4426261,48.9473608 9.34579391,52.9826798 10.6755317,56.131245 C11.1187776,57.1812831 11.8434692,58.0029712 13.3489556,58.1972391 C18.4840991,58.8596709 23.1099748,53.1245852 26.1708514,45.7690512 C27.322051,43.003135 28.2259007,40.1408594 29.2751227,37.3352839 L29.3213071,37.2113491 C30.5252002,33.9955493 31.7687685,30.6697573 34.1954625,28.1414861 C36.6078982,25.6280871 38.8095596,23.8149201 41.7191747,23.1317292 C42.4562648,22.9582204 43.102226,23.0397076 43.5848371,23.3693743 C44.0513302,23.6888164 44.3519935,24.2359888 44.4530412,24.9523323 C44.5881847,25.9115881 44.577336,26.9080244 44.422045,27.8344375 C43.6533387,32.4240552 41.740872,35.6593748 38.5739884,37.7228902 C36.5781418,39.0238964 35.4433703,39.1524788 33.3458562,37.5295518 C32.8102415,37.1149897 31.6066583,37.1899703 31.1776706,37.8214184 C30.748683,38.4531764 30.8016865,39.6475986 31.945447,40.4513162 C32.9915694,41.1053824 33.3728229,41.3461259 34.6359188,41.5177757 C40.6662331,42.3310982 46.2226153,40.8544143 51.143885,37.1196373 C51.3853455,36.9359039 51.6215367,36.745354 51.8698164,36.5390025 C51.8710563,36.6046879 51.8741559,36.6682046 51.8766356,36.7326507 C51.9699342,38.5163832 52.6915262,39.991208 53.9081278,40.8841587 C55.0921833,41.7532519 56.6559426,41.9983331 58.3123805,41.5716873 C59.5506794,41.2534846 60.7105579,40.582997 61.5821716,40.0342754 C62.218524,39.6327264 62.775526,39.1199459 63.3139304,38.6238967 C63.3582549,38.5829982 63.4038194,38.5411701 63.448144,38.499652 C64.7180591,40.6059249 66.8763258,41.6776516 70.0174826,41.7699831 C73.9450135,41.8967065 77.4950104,40.8503864 80.547518,38.6867936 C81.4615965,38.0395438 82.3211217,37.2962445 83.1530602,36.5783518 C83.2779749,36.4695989 83.4038196,36.3614658 83.5296642,36.2527129 C83.5423727,36.3066246 83.5544612,36.3602264 83.5671697,36.4132086 C84.2679942,39.3594501 86.1352064,41.1193251 89.1148729,41.6435696 C91.8385107,42.124127 94.3956987,41.3510833 96.9414182,39.287258 C97.0105397,39.2317972 97.0697425,39.1797445 97.1345246,39.1252132 C97.6909067,39.7170021 98.4047496,40.1083265 99.2407177,40.2434155 C101.671131,40.6313316 104.770443,38.7199462 106.774349,35.5831548 C108.392661,33.0465181 110.171224,29.3591461 111.180771,25.4939276 C111.773109,25.5552754 118.877752,26.2722386 120.082575,25.0675917 C117.414731,31.421732 110.657555,35.647601 108.379643,37.5252141 C108.330669,37.5654929 108.296883,37.6178554 108.257828,37.6637113 C107.647822,38.3865614 107.733682,39.4654144 108.449384,40.0829198 C108.775155,40.3639421 109.176866,40.5018196 109.576097,40.5018196 C110.054678,40.5018196 110.53016,40.3041435 110.871739,39.9174668 C110.886617,39.8998061 110.898086,39.8778076 110.917613,39.8651043 C112.037507,39.1453526 113.027526,39.5221146 113.687435,39.7575908 C114.087287,39.9004257 119.080467,41.615994 126.000373,39.3070876 C126.820223,40.3741667 128.120515,41.1620826 130.115741,41.4136704 C138.682166,42.4940725 142.58304,37.8006593 145.399667,35.1255254 C148.215983,32.4500816 147.674169,31.0353651 147.562893,30.7332739" id="Fill-1" fill="#000000" mask="url(#mask-2)"></path>
                </g>
                <path d="M62.3400783,17 C62.363282,17 62.3867833,16.9997028 62.4099871,16.9991083 C63.7796058,16.960169 65.0135715,15.6020505 64.9998872,14.1500022 L64.9998872,14.149705 C64.9933426,13.5162731 64.774989,12.9752848 64.3683276,12.5847031 C63.9503619,12.1834205 63.3589627,11.9875352 62.7104465,12.0006141 C61.3509423,12.0398506 60.0342758,13.3747838 60.0006601,14.7471701 C59.9860833,15.3303674 60.2133615,15.8853263 60.6402518,16.3094968 C61.0829087,16.7506103 61.6989991,17 62.3400783,17" id="Fill-4" fill="#000000"></path>
            </g>
        </g>
    </g>
</svg>