<?xml version="1.0" encoding="utf-8"?>
<!-- Generator: Adobe Illustrator 20.1.0, SVG Export Plug-In . SVG Version: 6.00 Build 0)  -->
<svg version="1.1" id="Слой_1" xmlns="http://www.w3.org/2000/svg" xmlns:xlink="http://www.w3.org/1999/xlink" x="0px" y="0px"
	 viewBox="0 0 1834.4 1716.9" style="enable-background:new 0 0 1834.4 1716.9;" xml:space="preserve">
<style type="text/css">
	.st0{fill:#3ACE01;}
	.st1{fill:#FFFFFF;}
</style>
<path class="st0" d="M917.2,0c506.6,0,917.2,328.8,917.2,734.4c0,141.7-50.1,274-136.9,386.2c-4.3,6.4-9.9,13.4-17,21.2l-0.5,0.6
	c-29.6,35.5-63,68.8-99.7,99.5c-253.6,234.4-671.1,513.6-726.2,470.5c-47.9-37.4,78.9-220.5-67.4-251c-10.2-1.2-20.4-2.4-30.5-3.9
	l-0.2,0v0C326.3,1396.5,0,1096,0,734.4C0,328.8,410.6,0,917.2,0L917.2,0z"/>
<path class="st1" d="M385,968.7h185c26.3,0,47.8-21.5,47.8-47.8v-4c0-26.3-21.5-47.8-47.8-47.8H436.9v-303
	c0-26.3-21.5-47.8-47.8-47.8h-4c-26.3,0-47.8,21.5-47.8,47.8v354.8C337.2,947.2,358.7,968.7,385,968.7z M1531.3,746.3v-4
	c0-26.3-21.5-47.8-47.8-47.8h-133.2v-75.7h133.2c26.3,0,47.8-21.5,47.8-47.8v-4c0-26.3-21.5-47.8-47.8-47.8h-185
	c-26.3,0-47.8,21.5-47.8,47.8v354.8c0,26.3,21.5,47.8,47.8,47.8h185c26.3,0,47.8-21.5,47.8-47.8v-4c0-26.3-21.5-47.8-47.8-47.8
	h-133.2v-75.7h133.2C1509.8,794.2,1531.3,772.6,1531.3,746.3L1531.3,746.3z M1175.5,954.5L1175.5,954.5c8.9-8.9,13.8-21,13.8-33.6
	V566.1c0-26.3-21.5-47.8-47.8-47.8h-4c-26.3,0-47.8,21.5-47.8,47.8v208.3L916.8,542.5c-8.3-14.4-23.8-24.2-41.5-24.2h-4
	c-26.3,0-47.8,21.5-47.8,47.8v354.8c0,26.3,21.5,47.8,47.8,47.8h4c26.3,0,47.8-21.5,47.8-47.8V708.7l174.1,237.9
	c1.1,1.7,2.2,3.3,3.5,4.8l0,0c4.8,6.5,11.3,11,18.6,13.7c5.6,2.3,11.7,3.6,18.1,3.6h4c7.8,0,15.5-1.9,22.3-5.6
	C1168.7,960.9,1172.7,957.9,1175.5,954.5L1175.5,954.5z M704.3,968.7h4c26.3,0,47.8-21.5,47.8-47.8V566.1
	c0-26.3-21.5-47.8-47.8-47.8h-4c-26.3,0-47.8,21.5-47.8,47.8v354.8C656.4,947.2,678,968.7,704.3,968.7L704.3,968.7z"/>
</svg>
