<?xml version="1.0" encoding="UTF-8"?>
<svg width="44px" height="44px" viewBox="0 0 44 44" version="1.1" xmlns="http://www.w3.org/2000/svg" xmlns:xlink="http://www.w3.org/1999/xlink">
    <!-- Generator: sketchtool 49.1 (51147) - http://www.bohemiancoding.com/sketch -->
    <title>288935F5-AE6C-4A8B-946E-05A832DF4428</title>
    <desc>Created with sketchtool.</desc>
    <defs></defs>
    <g id="Symbols" stroke="none" stroke-width="1" fill="none" fill-rule="evenodd">
        <g id="tw_follow_button" fill="#1DA1F2">
            <path d="M13.837648,40 C30.442016,40 39.522384,26.5357716 39.522384,14.860664 C39.522384,14.4780685 39.514464,14.0971956 39.496512,13.7183898 C41.258976,12.4713798 42.791232,10.9153304 44,9.14360807 C42.382384,9.84678459 40.641744,10.3208517 38.815744,10.5344575 C40.679408,9.44093357 42.110464,7.7100375 42.785248,5.64701887 C41.040736,6.6590625 39.109488,7.39531347 37.05328,7.79151778 C35.40592,6.07423048 33.060016,5 30.464016,5 C25.478288,5 21.435216,8.95704751 21.435216,13.8350117 C21.435216,14.5285415 21.514592,15.2026056 21.669472,15.8496245 C14.16712,15.4804654 7.514144,11.9644105 3.0624,6.61823623 C2.286416,7.92364331 1.839728,9.44093357 1.839728,11.0589975 C1.839728,14.1245853 3.433584,16.8306608 5.856928,18.4137554 C4.37624,18.3691394 2.98496,17.9708679 1.768448,17.3083454 C1.766336,17.3452096 1.766336,17.3822461 1.766336,17.4210052 C1.766336,21.7007009 4.878544,25.2730857 9.008736,26.0832374 C8.250528,26.2851293 7.45272,26.3939994 6.62904,26.3939994 C6.047536,26.3939994 5.481872,26.3376694 4.932048,26.2346563 C6.081152,29.7450265 9.413712,32.2995108 13.365264,32.3715166 C10.275056,34.7413352 6.382992,36.1537174 2.15336,36.1537174 C1.425072,36.1537174 0.706464,36.1128912 0,36.0312386 C3.9952,38.5371448 8.738752,40 13.837648,40" id="Fill-4-Copy-2"></path>
        </g>
    </g>
</svg>